<?xml version="1.0" standalone="no"?>
<!DOCTYPE svg PUBLIC "-//W3C//DTD SVG 1.1//EN" "http://www.w3.org/Graphics/SVG/1.1/DTD/svg11.dtd" >
<svg xmlns="http://www.w3.org/2000/svg">
<metadata></metadata>
<defs>
<font id="gobold_lightregular" horiz-adv-x="1053" >
<font-face units-per-em="2048" ascent="1638" descent="-410" />
<missing-glyph horiz-adv-x="508" />
<glyph horiz-adv-x="2048" />
<glyph horiz-adv-x="2048" />
<glyph unicode="&#xd;" horiz-adv-x="508" />
<glyph unicode=" "  horiz-adv-x="508" />
<glyph unicode="&#x09;" horiz-adv-x="508" />
<glyph unicode="&#xa0;" horiz-adv-x="508" />
<glyph unicode="!" horiz-adv-x="465" d="M120 50v225h225v-225h-225zM121 1912h223l-19 -1332h-185z" />
<glyph unicode="&#x22;" horiz-adv-x="863" d="M120 1913h191l-29 -552h-133zM552 1913h191l-29 -552h-133z" />
<glyph unicode="#" horiz-adv-x="1249" d="M80 780v53h195l71 357h-224v53h235l133 670h135l-133 -670h347l133 670h135l-133 -670h195v-53h-206l-71 -357h235v-53h-246l-145 -730h-135l145 730h-347l-145 -730h-135l145 730h-184zM410 833h347l71 357h-347z" />
<glyph unicode="$" horiz-adv-x="953" d="M120 413v213h183v-213q0 -183 173 -183t173 183v223q0 169 -285 373q-244 175 -244 420v184q0 315 290 361v169h132v-169q291 -46 291 -361v-214h-184v214q0 182 -172 183h-2q-172 0 -172 -183v-178q0 -158 286 -362q244 -174 244 -412v-248q0 -316 -291 -361v-232h-132 v232q-290 46 -290 361z" />
<glyph unicode="%" horiz-adv-x="1597" d="M125 1079v704q0 192 189 192q188 0 188 -192v-704q0 -192 -188 -192q-189 0 -189 192zM191 1079q0 -128 123 -128q122 0 122 128v704q0 128 -122 128h-2q-121 0 -121 -128v-704zM328 50l686 1863h68l-685 -1863h-69zM966 243v704q0 192 188 192q189 0 189 -192v-704 q0 -192 -189 -192h-2q-186 0 -186 192zM1032 243q0 -128 122 -128q123 0 123 128v704q0 128 -122 128h-2q-121 0 -121 -128v-704z" />
<glyph unicode="&#x26;" horiz-adv-x="1083" d="M120 413v327q0 163 214 273q-214 110 -214 273v295q0 337 271 360q41 3 84 3q37 0 75 -2q283 -19 283 -361v-34h-183v34q0 163 -112 180q-28 5 -59 5q-26 0 -54 -3q-122 -14 -122 -182v-295q0 -128 108 -171q28 -12 64 -13h175v134h183v-134h180v-179h-180v-510 q0 -348 -297 -361q-33 -1 -63 -1q-58 0 -100 5q-253 29 -253 357zM303 413q0 -139 74 -169q33 -15 97 -15q14 0 29 1q147 6 147 183v510h-175q-36 -1 -63 -12q-109 -43 -109 -171v-327z" />
<glyph unicode="'" horiz-adv-x="431" d="M120 1913h191l-29 -552h-133z" />
<glyph unicode="(" horiz-adv-x="444" d="M120 166v1632q0 358 294 361v-132q-111 -3 -111 -183v-1725q0 -179 111 -182v-133q-294 3 -294 362z" />
<glyph unicode=")" horiz-adv-x="444" d="M30 -63q111 3 111 182v1725q0 180 -111 183v132q294 -3 294 -361v-1632q0 -359 -294 -362v133z" />
<glyph unicode="*" horiz-adv-x="943" d="M127 1679q0 19 9 46q19 62 50 62q19 0 46 -14q52 -27 226 -134q-65 196 -72 251q-1 9 -1 18q0 54 77 55h3q75 0 75 -49q0 -12 -2 -26q-10 -60 -65 -251q173 116 226 140q23 11 39 11q31 0 52 -61q9 -28 9 -49q0 -38 -56 -46q-13 -2 -31 -2q-65 0 -232 -8 q167 -135 206 -177q24 -26 24 -45q0 -26 -43 -58q-37 -27 -61 -27t-45 43q-27 55 -95 257q-72 -211 -100 -261q-21 -38 -46 -38q-22 0 -58 25q-46 33 -46 57q0 20 30 48q42 43 204 180q-168 1 -234 1q-21 0 -35 3q-54 10 -54 49z" />
<glyph unicode="+" horiz-adv-x="947" d="M120 915v133h288v287h132v-287h287v-133h-287v-287h-132v287h-288z" />
<glyph unicode="," horiz-adv-x="491" d="M120 50v225h251v-230l-95 -322h-86l58 327h-128z" />
<glyph unicode="-" horiz-adv-x="686" d="M50 891v133h586v-133h-586z" />
<glyph unicode="." horiz-adv-x="465" d="M120 50v225h225v-225h-225z" />
<glyph unicode="/" horiz-adv-x="626" d="M60 50l371 1863h135l-371 -1863h-135z" />
<glyph unicode="0" horiz-adv-x="953" d="M120 381v1200q0 363 356 363q357 0 357 -363v-1200q0 -362 -357 -362q-356 0 -356 362zM303 381q0 -183 173 -183q174 0 174 183v1200q0 183 -173 183h-2q-172 0 -172 -183v-1200z" />
<glyph unicode="1" horiz-adv-x="973" d="M130 50v179h265v1504h-265v179h448v-1683h265v-179h-713z" />
<glyph unicode="2" horiz-adv-x="973" d="M130 50v371q0 239 243 413q286 204 287 362v385q0 183 -172 183h-2q-173 0 -173 -183v-213h-183v213q0 363 356 363q357 0 357 -363v-392q0 -244 -244 -419q-286 -204 -286 -373v-168h530v-179h-713z" />
<glyph unicode="3" horiz-adv-x="973" d="M130 382v213h180v-214q0 -187 176 -187q177 0 177 187v358q0 139 -75 173q-34 14 -94 14h-46v179h68q54 0 85 19q62 35 62 163v292q0 139 -75 173q-34 14 -97 14q-16 0 -32 -1q-149 -6 -149 -186v-211h-180v213q0 254 138 325q104 54 213 54q101 0 209 -48 q153 -66 153 -331v-296q0 -163 -214 -273q214 -110 214 -273v-357q0 -230 -111 -309q-71 -50 -232 -54h-23q-143 0 -218 43q-129 74 -129 320z" />
<glyph unicode="4" horiz-adv-x="973" d="M52 531v188l480 1193h277v-1202h109v-179h-109v-481h-183v481h-574zM208 710h418v1062z" />
<glyph unicode="5" horiz-adv-x="973" d="M130 381v182h183v-182q0 -177 148 -183h21q69 0 103 14q75 32 75 169v557q0 137 -74 169q-33 15 -97 15q-15 0 -30 -1q-127 -6 -143 -123l-1 -33h-183l38 947h673v-179h-497l-29 -614q93 163 253 175q14 0 30 -2q126 -11 190 -98q53 -73 53 -256v-557q0 -328 -254 -357 q-42 -5 -99 -5q-30 0 -63 1q-297 13 -297 361z" />
<glyph unicode="6" horiz-adv-x="973" d="M130 381v1200q0 363 356 363q357 0 357 -363v-213h-183v213q0 183 -173 183h-2q-172 0 -172 -183v-589q101 131 245 133q19 0 38 -2q117 -12 181 -81q66 -71 66 -271v-390q0 -362 -357 -362q-356 0 -356 362zM313 381q0 -183 173 -183q174 0 174 183v390q0 139 -74 169 q-33 15 -97 15q-15 0 -30 -1q-146 -6 -146 -183v-390z" />
<glyph unicode="7" horiz-adv-x="973" d="M121 1733v179h737v-145l-386 -1717h-188l378 1683h-541z" />
<glyph unicode="8" horiz-adv-x="973" d="M130 382v357q0 212 214 273q-214 55 -214 273v296q0 254 138 325q104 54 213 54q101 0 209 -48q153 -66 153 -331v-296q0 -218 -214 -273q214 -61 214 -273v-357q0 -230 -111 -309q-71 -50 -232 -54h-23q-143 0 -218 43q-129 74 -129 320zM310 381q0 -187 176 -187 q177 0 177 187v358q0 139 -75 173q-34 14 -97 14q-16 0 -32 -1q-149 -6 -149 -186v-358zM310 1287q0 -187 176 -187q177 0 177 187v292q0 139 -75 173q-34 14 -97 14q-16 0 -32 -1q-149 -6 -149 -186v-292z" />
<glyph unicode="9" horiz-adv-x="973" d="M130 381v214h183v-214q0 -182 173 -183h2q172 0 172 183v589q-118 -133 -246 -133h-2q-17 0 -35 2q-117 12 -181 81q-66 71 -66 271v390q0 362 357 363q356 0 356 -363v-1200q0 -362 -357 -362q-356 0 -356 362zM313 1191q0 -137 74 -169q33 -14 95 -14q15 0 30 1 q148 4 148 182v390q0 183 -173 183q-174 0 -174 -183v-390z" />
<glyph unicode=":" horiz-adv-x="464" d="M120 50v225h224v-225h-224zM120 1055v224h224v-224h-224z" />
<glyph unicode=";" horiz-adv-x="491" d="M120 50v225h251v-230l-95 -322h-86l58 327h-128zM120 1055v224h225v-224h-225z" />
<glyph unicode="&#x3c;" horiz-adv-x="947" d="M120 859v232l707 396v-160l-643 -351l643 -340v-160z" />
<glyph unicode="=" horiz-adv-x="947" d="M120 683v132h707v-132h-707zM120 1146v133h707v-133h-707z" />
<glyph unicode="&#x3e;" horiz-adv-x="947" d="M120 476v160l643 340l-643 351v160l707 -396v-232z" />
<glyph unicode="?" horiz-adv-x="953" d="M120 1368v213q0 363 357 363q356 0 356 -363v-197q0 -228 -184 -412q-214 -212 -214 -380v5h-183v19q0 224 184 406q214 212 214 369v190q0 183 -172 183h-2q-173 0 -173 -183v-213h-183zM236 50v225h225v-225h-225z" />
<glyph unicode="@" horiz-adv-x="1383" d="M130 596v801q0 558 562 558q561 0 561 -545v-57h-1v-129q0 -222 -217 -222h-159v-394q0 -222 -218 -222q-217 0 -217 222v257q0 221 217 221h132v312q0 137 -131 137h-2q-130 0 -130 -137v-20h-86v20q0 221 217 221q218 0 218 -221v-312h159q131 0 131 138v186 q0 462 -474 462q-475 0 -475 -475v-801q0 -462 475 -462q474 0 474 467h87q0 -550 -561 -550q-562 0 -562 545zM511 608q0 -138 131 -138q132 0 132 138v393l-132 2q-131 0 -131 -138v-257z" />
<glyph unicode="A" horiz-adv-x="937" d="M40 50l84 636l194 1226h302l192 -1223l85 -639h-185l-55 416h-377l-56 -416h-184zM303 646h330l-165 1154z" />
<glyph unicode="B" horiz-adv-x="943" d="M130 50v1862l386 -1q327 0 327 -362v-295q0 -201 -214 -273q214 -83 214 -273v-296q0 -361 -327 -361q-8 0 -20 -1h-366zM313 229h174q173 0 173 183v296q0 128 -108 170q-31 13 -100 13h-139v-662zM313 1071h139q68 0 99 11q109 44 109 172v295q0 184 -173 184h-174 v-662z" />
<glyph unicode="C" horiz-adv-x="923" d="M110 381v1200q0 362 356 362q357 0 357 -362v-214h-183v214q0 182 -173 183h-2q-172 0 -172 -183v-1200q0 -183 173 -183q174 0 174 183v214h183v-214q0 -362 -357 -363q-356 0 -356 363z" />
<glyph unicode="D" horiz-adv-x="953" d="M130 50v1862l386 -1q327 0 327 -362v-1137q0 -361 -327 -361q-8 0 -20 -1h-366zM313 229h174q173 0 173 183v1137q0 184 -173 184h-174v-1504z" />
<glyph unicode="E" horiz-adv-x="844" d="M130 50v1862h634v-179h-451v-662h388v-180h-388v-662h451v-179h-634z" />
<glyph unicode="F" horiz-adv-x="824" d="M130 50v1862h634v-179h-451v-662h388v-180h-388v-841h-183z" />
<glyph unicode="G" horiz-adv-x="933" d="M110 381v1200q0 362 356 362q357 0 357 -362v-214h-183v214q0 182 -173 183h-2q-172 0 -172 -183v-1200q0 -183 173 -183q174 0 174 183v510h-143v180h326v-690q0 -362 -357 -363q-356 0 -356 363z" />
<glyph unicode="H" horiz-adv-x="973" d="M130 50v1862h183v-841h347v841h183v-1862h-183v841h-347v-841h-183z" />
<glyph unicode="I" horiz-adv-x="453" d="M135 50v1862h183v-1862h-183z" />
<glyph unicode="J" horiz-adv-x="873" d="M30 381v66h183v-66q0 -183 174 -183q173 0 173 183v1531h183v-1531q0 -363 -356 -363q-357 1 -357 363z" />
<glyph unicode="K" horiz-adv-x="934" d="M130 50v1862h183v-882l387 882h194l-419 -922l419 -940h-194l-387 866v-866h-183z" />
<glyph unicode="L" horiz-adv-x="804" d="M130 50v1862h183v-1683h451v-179h-634z" />
<glyph unicode="M" horiz-adv-x="1388" d="M130 50v1862h194l372 -1503l368 1503h194v-1862h-171v1511l-332 -1511h-112l-339 1499v-1499h-174z" />
<glyph unicode="N" horiz-adv-x="973" d="M130 50v1862h193l358 -1518v1514l162 3v-1861h-193l-348 1485v-1485h-172z" />
<glyph unicode="O" horiz-adv-x="933" d="M110 381v1200q0 362 356 362q357 0 357 -362v-1200q0 -362 -357 -363q-356 0 -356 363zM293 381q0 -183 173 -183q174 0 174 183v1200q0 182 -173 183h-2q-172 0 -172 -183v-1200z" />
<glyph unicode="P" horiz-adv-x="899" d="M130 50v1862l362 -1q327 0 327 -362v-295q0 -268 -236 -344q-58 -19 -174 -19h-96v-841h-183zM313 1071h115q68 0 99 11q109 44 109 172v295q0 184 -173 184h-150v-662z" />
<glyph unicode="Q" horiz-adv-x="933" d="M110 381v1200q0 362 356 362q357 0 357 -362v-1200q0 -324 -314 -363q4 -166 224 -166q41 0 90 6v-136q-37 -2 -71 -2q-145 0 -220 42q-82 46 -82 208q0 23 2 48q-342 24 -342 363zM293 381q0 -183 173 -183q174 0 174 183v1200q0 182 -173 183h-2q-172 0 -172 -183 v-1200z" />
<glyph unicode="R" horiz-adv-x="924" d="M130 50v1862l362 -1q327 0 327 -362v-295q0 -224 -236 -311l311 -893h-203l-256 868l-122 -16v-852h-183zM313 1071h115q68 0 99 11q109 44 109 172v295q0 184 -173 184h-150v-662z" />
<glyph unicode="S" horiz-adv-x="933" d="M110 381v214h183v-214q0 -183 174 -183q173 0 173 183v224q0 168 -286 373q-244 174 -244 419v184q0 362 356 362q357 0 357 -362v-214h-183v214q0 182 -173 183h-2q-172 0 -172 -183v-178q0 -157 286 -362q244 -174 244 -412v-248q0 -363 -356 -363q-357 1 -357 363z " />
<glyph unicode="T" horiz-adv-x="813" d="M50 1733v179h713v-179h-265v-1683h-183v1683h-265z" />
<glyph unicode="U" horiz-adv-x="953" d="M120 381v1531h183v-1531q0 -183 173 -183q174 0 174 183v1531h183v-1531q0 -362 -357 -363q-356 0 -356 363z" />
<glyph unicode="V" horiz-adv-x="937" d="M40 1912h185l243 -1731l244 1731h185l-85 -639l-192 -1223h-302l-194 1225z" />
<glyph unicode="W" horiz-adv-x="1618" d="M40 1912h184l242 -1721l246 1721h193l242 -1721l246 1721h185l-85 -639l-192 -1223h-302l-190 1312l-189 -1312h-302l-194 1225z" />
<glyph unicode="X" horiz-adv-x="878" d="M40 50l309 931l-309 931h180l220 -661l219 661h179l-309 -931l309 -931h-179l-219 661l-220 -661h-180z" />
<glyph unicode="Y" horiz-adv-x="931" d="M40 1912h193l232 -919l232 919h194l-323 -1048l-11 -31v-783h-183v784l-11 31z" />
<glyph unicode="Z" horiz-adv-x="780" d="M80 50v114l398 1569h-385v179h590v-114l-398 -1569h415v-179h-620z" />
<glyph unicode="[" horiz-adv-x="447" d="M130 -197v2357h287v-132h-154v-2092h154v-133h-287z" />
<glyph unicode="\" horiz-adv-x="626" d="M60 1913h135l371 -1863h-135z" />
<glyph unicode="]" horiz-adv-x="447" d="M30 -64h154v2092h-154v132h287v-2357h-287v133z" />
<glyph unicode="^" horiz-adv-x="1004" d="M100 1222l308 707h189l307 -707h-145l-257 593l-257 -593h-145z" />
<glyph unicode="_" horiz-adv-x="932" d="M0 -157h932v-111h-932v111z" />
<glyph unicode="`" horiz-adv-x="578" d="M130 2008h152l166 -153h-79z" />
<glyph unicode="a" horiz-adv-x="935" d="M40 50l83 553l193 1076h304l192 -1073l83 -556h-185l-55 368h-375l-56 -368h-184zM301 564h332l-166 1068z" />
<glyph unicode="b" horiz-adv-x="943" d="M130 50v1629h366q12 -1 20 -1q327 0 327 -312v-261q0 -138 -226 -240q226 -102 226 -241v-260q0 -313 -327 -313h-18zM313 196h174q173 0 173 168v260q0 118 -110 157q-30 11 -98 11h-139v-596zM313 938h139q68 0 98 11q110 39 110 156v261q0 167 -173 167h-174v-595z " />
<glyph unicode="c" horiz-adv-x="923" d="M110 336v1057q0 314 356 314q357 0 357 -314v-182h-183v182q0 167 -173 168q-174 0 -174 -168v-1057q0 -167 173 -167q174 0 174 167v183h183v-183q0 -313 -357 -313q-356 0 -356 313z" />
<glyph unicode="d" horiz-adv-x="953" d="M130 50v1629h366q12 -1 20 -1q327 0 327 -312v-1002q0 -313 -327 -313h-18zM313 196h174q173 0 173 168v1002q0 167 -173 167h-174v-1337z" />
<glyph unicode="e" horiz-adv-x="824" d="M130 50v1629h634v-146h-451v-595h388v-146h-388v-596h451v-146h-634z" />
<glyph unicode="f" horiz-adv-x="824" d="M130 50v1629h634v-146h-451v-595h388v-146h-388v-742h-183z" />
<glyph unicode="g" horiz-adv-x="933" d="M110 336v1057q0 314 356 314q357 0 357 -314v-182h-183v182q0 167 -173 168q-174 0 -174 -168v-1057q0 -167 173 -167q174 0 174 167v456h-143v146h326v-602q0 -313 -357 -313q-356 0 -356 313z" />
<glyph unicode="h" horiz-adv-x="973" d="M130 50v1629h183v-741h347v741h183v-1629h-183v742h-347v-742h-183z" />
<glyph unicode="i" horiz-adv-x="448" d="M135 50v1629h183v-1629h-183z" />
<glyph unicode="j" horiz-adv-x="873" d="M30 336v52h183v-52q0 -167 174 -167q173 0 173 167v1343h183v-1343q0 -313 -356 -313q-357 0 -357 313z" />
<glyph unicode="k" horiz-adv-x="931" d="M130 50v1629h183v-748l385 748h193l-413 -771l413 -858h-193l-385 803v-803h-183z" />
<glyph unicode="l" horiz-adv-x="804" d="M130 50v1629h183v-1483h451v-146h-634z" />
<glyph unicode="m" horiz-adv-x="1388" d="M130 50v1629h195l371 -1320l367 1320h195v-1629h-171v1328l-331 -1328h-114l-338 1317v-1317h-174z" />
<glyph unicode="n" horiz-adv-x="973" d="M130 50v1629h195l356 -1334v1331l162 2v-1628h-195l-346 1305v-1305h-172z" />
<glyph unicode="o" horiz-adv-x="933" d="M110 336v1057q0 314 356 314q357 0 357 -314v-1057q0 -313 -357 -313q-356 0 -356 313zM293 336q0 -167 173 -167q174 0 174 167v1057q0 167 -173 168q-174 0 -174 -168v-1057z" />
<glyph unicode="p" horiz-adv-x="899" d="M130 50v1629h342q12 -1 20 -1q327 0 327 -312v-261q0 -230 -235 -297q-58 -16 -175 -16h-96v-742h-183zM313 938h115q68 0 98 11q110 39 110 156v261q0 167 -173 167h-150v-595z" />
<glyph unicode="q" horiz-adv-x="933" d="M110 336v1057q0 314 356 314q357 0 357 -314v-1057q0 -279 -314 -314q7 -157 239 -157q35 0 75 4v-107q-38 -2 -71 -2q-151 0 -216 37q-81 45 -84 225q-342 22 -342 314zM293 336q0 -167 173 -167q174 0 174 167v1057q0 167 -173 168q-174 0 -174 -168v-1057z" />
<glyph unicode="r" horiz-adv-x="920" d="M130 50v1629h342q12 -1 20 -1q327 0 327 -312v-261q0 -192 -239 -269l310 -786h-200l-257 766l-120 -16v-750h-183zM313 938h115q68 0 98 11q110 39 110 156v261q0 167 -173 167h-150v-595z" />
<glyph unicode="s" horiz-adv-x="933" d="M110 336v183h183v-183q0 -167 174 -167q173 0 173 167v197q0 154 -288 335q-242 153 -242 363v162q0 314 356 314q357 0 357 -314v-182h-183v182q0 167 -173 168q-174 0 -174 -168v-156q0 -144 288 -325q242 -152 242 -357v-219q0 -313 -356 -313q-357 0 -357 313z" />
<glyph unicode="t" horiz-adv-x="813" d="M50 1533v146h713v-146h-265v-1483h-183v1483h-265z" />
<glyph unicode="u" horiz-adv-x="953" d="M120 336v1343h183v-1343q0 -167 173 -167q174 0 174 167v1343h183v-1343q0 -313 -357 -313q-356 0 -356 313z" />
<glyph unicode="v" horiz-adv-x="935" d="M40 1679h185l244 -1479l241 1479h185l-83 -555l-192 -1074h-304l-193 1076z" />
<glyph unicode="w" horiz-adv-x="1616" d="M40 1679h184l241 -1481l245 1481h195l241 -1481l245 1481h185l-83 -555l-192 -1074h-304l-189 1152l-189 -1152h-303l-193 1076z" />
<glyph unicode="x" horiz-adv-x="872" d="M40 50l307 815l-307 814h178l219 -579l217 579h178l-307 -814l307 -815h-178l-217 579l-219 -579h-178z" />
<glyph unicode="y" horiz-adv-x="925" d="M40 1679h192l231 -804l230 804h192l-319 -914l-11 -29v-686h-183v687l-13 29z" />
<glyph unicode="z" horiz-adv-x="780" d="M80 50v93l400 1390h-387v146h590v-93l-400 -1390h417v-146h-620z" />
<glyph unicode="{" horiz-adv-x="445" d="M10 914v135q111 3 111 182v567q0 358 294 361v-132q-111 -3 -111 -183v-566q0 -181 -93 -296q93 -116 93 -297v-566q0 -179 111 -182v-133q-294 3 -294 362v566q0 180 -111 182z" />
<glyph unicode="|" horiz-adv-x="412" d="M140 -277v2517h132v-2517h-132z" />
<glyph unicode="}" horiz-adv-x="445" d="M30 -63q111 3 111 182v566q0 181 93 297q-93 115 -93 296v566q0 180 -111 183v132q294 -3 294 -361v-567q0 -179 111 -182v-135q-111 -2 -111 -182v-566q0 -359 -294 -362v133z" />
<glyph unicode="~" horiz-adv-x="961" d="M100 955l27 41q84 131 190 131h9q71 -3 195 -96q81 -61 142 -61q55 0 89 43l31 39l78 -62l-31 -39q-75 -95 -165 -95h-11q-71 3 -193 95q-89 67 -116 72q-8 2 -19 2q-61 0 -115 -83l-27 -42z" />
<glyph unicode="&#xa1;" horiz-adv-x="565" d="M120 1454v225h225v-225h-225zM121 -183l19 1332h185l19 -1332h-223z" />
<glyph unicode="&#xa2;" horiz-adv-x="957" d="M120 336v1057q0 314 356 314q118 0 248 -53l75 246l38 -3l-84 -271q80 -96 80 -233v-182h-206l-299 -979q67 -63 148 -63q174 0 174 167v183h183v-183q0 -313 -357 -313q-89 0 -203 31l-100 -329l-37 3l105 344q-121 96 -121 264zM303 274l347 1135q-17 151 -173 152 q-174 0 -174 -168v-1119z" />
<glyph unicode="&#xa3;" horiz-adv-x="1026" d="M60 50v179h19q174 0 174 184v555h-193v58h193v555q0 363 356 363q357 0 357 -363v-213h-183v213q0 183 -173 183h-2q-172 0 -172 -183v-555h331v-58h-331v-416q0 -162 -104 -323h555v-179h-827z" />
<glyph unicode="&#xa4;" horiz-adv-x="1256" d="M130 574l151 150q-9 69 -9 124v267q0 46 6 108l-148 148l100 99l98 -98q117 106 300 106t301 -106l98 98l99 -99l-148 -149q7 -62 7 -107v-267q0 -53 -10 -124l151 -150l-99 -100l-106 107q-118 -95 -293 -95q-174 0 -291 94l-107 -106zM455 848q0 -183 173 -183 q174 0 174 183v267q0 182 -173 183h-2q-172 0 -172 -183v-267z" />
<glyph unicode="&#xa5;" horiz-adv-x="1051" d="M100 1912h193l232 -918l232 918h194l-304 -986h232v-58h-262v-259h262v-59h-262v-500h-183v500h-262v59h262v259h-262v58h232z" />
<glyph unicode="&#xa6;" horiz-adv-x="412" d="M140 50v684h132v-684h-132zM140 1036v643h132v-643h-132z" />
<glyph unicode="&#xa7;" horiz-adv-x="953" d="M120 908q0 239 246 334q-246 165 -246 396q0 306 353 306q336 0 336 -306v-50h-183v50q0 165 -162 165q-161 0 -161 -165q0 -209 290 -374q240 -135 240 -428q0 -245 -322 -319q322 -197 322 -464q0 -330 -354 -330q-336 0 -336 330v56h183v-56q0 -173 163 -173 q160 0 160 173q0 220 -288 395q-241 144 -241 460zM286 855q0 -194 183 -194q184 0 184 194v41q0 193 -183 194h-2q-182 0 -182 -194v-41z" />
<glyph unicode="&#xa8;" horiz-adv-x="799" d="M130 1856v142h142v-142h-142zM526 1856v142h143v-142h-143z" />
<glyph unicode="&#xa9;" horiz-adv-x="1363" d="M120 596v801q0 558 561 558q562 0 562 -545v-802q0 -557 -562 -557q-561 0 -561 545zM207 596q0 -462 474 -462q475 0 475 474v802q0 462 -474 462q-475 0 -475 -475v-801zM463 604v798q0 224 220 224q221 0 221 -224v-27h-89v27q0 137 -131 139q-133 0 -133 -139v-798 q0 -139 132 -139t132 139v26h89v-26q0 -225 -221 -225q-220 0 -220 225z" />
<glyph unicode="&#xaa;" horiz-adv-x="645" d="M60 571v93h519v-93h-519zM62 975l51 308l143 631h142l136 -630l51 -309h-87l-36 221h-276l-37 -221h-87zM193 1243h260l-127 612z" />
<glyph unicode="&#xab;" horiz-adv-x="1305" d="M130 1002l432 394v-194l-252 -214l252 -207v-181zM619 1002l432 394v-194l-252 -214l252 -207v-181z" />
<glyph unicode="&#xac;" horiz-adv-x="967" d="M130 915v133h707v-420h-132v287h-575z" />
<glyph unicode="&#xad;" horiz-adv-x="686" d="M50 891v133h586v-133h-586z" />
<glyph unicode="&#xae;" horiz-adv-x="1363" d="M120 596v801q0 558 561 558q562 0 562 -545v-802q0 -557 -562 -557q-561 0 -561 545zM207 596q0 -462 474 -462q475 0 475 474v802q0 462 -474 462q-475 0 -475 -475v-801zM458 400v1206l228 -1h12q201 0 201 -224v-197q0 -125 -162 -181q161 -46 162 -182v-421h-88v421 q0 95 -82 129q-24 10 -74 10h-109v-560h-88zM546 1046h109q50 0 73 10q83 32 83 128v197q0 139 -132 139h-133v-474z" />
<glyph unicode="&#xaf;" horiz-adv-x="1108" d="M0 1802v111h1108v-111h-1108z" />
<glyph unicode="&#xb0;" horiz-adv-x="777" d="M130 1741q0 258 258 258q259 0 259 -258q0 -259 -259 -259q-258 0 -258 259zM213 1741q0 -176 175 -176q176 0 176 176q0 175 -176 175q-175 0 -175 -175z" />
<glyph unicode="&#xb1;" horiz-adv-x="947" d="M120 210v112h705v-112h-705zM120 915v133h288v287h132v-287h287v-133h-287v-287h-132v287h-288z" />
<glyph unicode="&#xb2;" horiz-adv-x="574" d="M100 881v196q0 128 133 224q175 125 176 228v224q0 128 -121 128h-1q-122 0 -122 -128v-103h-65v103q0 191 187 191t187 -191v-228q0 -132 -134 -228q-175 -125 -175 -234v-119h309v-63h-374z" />
<glyph unicode="&#xb3;" horiz-adv-x="579" d="M100 1051v105h65v-106q0 -130 124 -130q125 0 125 130v211q0 95 -56 121q-25 10 -64 10h-7v64h20q37 0 60 14q47 27 47 114v172q0 95 -56 121q-25 10 -66 10q-11 0 -21 -1q-106 -4 -106 -130v-104h-65v105q0 138 70 174q57 29 116 29q55 0 115 -27q78 -33 78 -176v-177 q0 -120 -150 -158q145 -38 150 -161v-210q0 -125 -57 -165q-37 -26 -125 -29h-13q-78 0 -118 23q-66 38 -66 171z" />
<glyph unicode="&#xb4;" horiz-adv-x="578" d="M130 1855l166 153h152l-239 -153h-79z" />
<glyph unicode="&#xb5;" horiz-adv-x="963" d="M130 -277v1862h183v-1205q0 -182 173 -182q174 0 174 183v1204h183v-1204q0 -328 -274 -358q-17 -2 -32 -2q-78 0 -224 95v-393h-183z" />
<glyph unicode="&#xb6;" horiz-adv-x="1070" d="M100 1310v354q0 175 52 216q42 33 213 33h575v-1863h-101v1762h-323v-1762h-101v1021q-227 0 -266 29q-49 37 -49 210z" />
<glyph unicode="&#xb7;" horiz-adv-x="508" d="M117 759v192h191v-192h-191z" />
<glyph unicode="&#xb8;" horiz-adv-x="553" />
<glyph unicode="&#xb9;" horiz-adv-x="973" d="M130 880v61h153v910h-153v61h216v-971h153v-61h-369z" />
<glyph unicode="&#xba;" horiz-adv-x="677" d="M120 1110v634q0 168 218 168q219 0 219 -168v-634q0 -168 -219 -168q-218 0 -218 168zM130 556v75h416v-75h-416zM207 1110q0 -121 131 -121q132 0 132 121v634q0 119 -131 121q-132 0 -132 -121v-634z" />
<glyph unicode="&#xbb;" horiz-adv-x="1305" d="M130 600v181l252 207l-252 214v194l432 -394zM619 600v181l252 207l-252 214v194l432 -394z" />
<glyph unicode="&#xbc;" horiz-adv-x="1509" d="M120 880v61h153v910h-153v61h216v-971h153v-61h-369zM461 50l686 1863h68l-685 -1863h-69zM955 326v82l311 667h80v-689h63v-60h-63v-276h-62v276h-329zM992 386h292v619z" />
<glyph unicode="&#xbd;" horiz-adv-x="1585" d="M60 880v61h153v910h-153v61h216v-971h153v-61h-369zM401 50l686 1863h68l-685 -1863h-69zM1111 50v196q0 128 133 224q175 125 176 228v224q0 128 -121 128h-1q-122 0 -122 -128v-103h-65v103q0 191 187 191t187 -191v-228q0 -132 -134 -228q-175 -125 -175 -234v-119 h309v-63h-374z" />
<glyph unicode="&#xbe;" horiz-adv-x="1449" d="M100 1051v105h65v-106q0 -130 124 -130q125 0 125 130v211q0 95 -56 121q-25 10 -64 10h-7v64h20q37 0 60 14q47 27 47 114v172q0 95 -56 121q-25 10 -66 10q-11 0 -21 -1q-106 -4 -106 -130v-104h-65v105q0 138 70 174q57 29 116 29q55 0 115 -27q78 -33 78 -176v-174 q0 -84 -150 -161q150 -77 150 -161v-210q0 -125 -57 -165q-37 -26 -125 -29h-13q-78 0 -118 23q-66 38 -66 171zM401 50l686 1863h68l-685 -1863h-69zM852 326v82l311 667h80v-689h63v-60h-63v-276h-62v276h-329zM889 386h292v619z" />
<glyph unicode="&#xbf;" d="M120 148v197q0 228 184 412q214 212 214 380v-5h183v-19q0 -224 -184 -406q-214 -212 -214 -369v-190q0 -183 172 -183h2q173 0 173 183v213h183v-213q0 -363 -357 -363q-356 0 -356 363zM492 1454v225h225v-225h-225z" />
<glyph unicode="&#xc0;" horiz-adv-x="1091" d="M60 50l84 636l194 1226h302l192 -1223l85 -639h-185l-55 416h-377l-56 -416h-184zM208 2241h152l166 -153h-79zM323 646h330l-165 1154z" />
<glyph unicode="&#xc1;" horiz-adv-x="1091" d="M60 50l84 636l194 1226h302l192 -1223l85 -639h-185l-55 416h-377l-56 -416h-184zM323 646h330l-165 1154zM451 2088l166 153h152l-239 -153h-79z" />
<glyph unicode="&#xc2;" horiz-adv-x="1091" d="M60 50l84 636l194 1226h302l192 -1223l85 -639h-185l-55 416h-377l-56 -416h-184zM222 2089l154 152h224l155 -152h-116l-151 104l-151 -104h-115zM323 646h330l-165 1154z" />
<glyph unicode="&#xc3;" horiz-adv-x="1091" d="M60 50l84 636l194 1226h302l192 -1223l85 -639h-185l-55 416h-377l-56 -416h-184zM211 2100l14 28q54 109 130 113h6q52 0 146 -58q63 -40 111 -40q55 0 85 46l14 24l47 -31l-16 -27q-50 -79 -117 -83h-5q-53 0 -145 58q-75 47 -101 51h-8q-59 0 -100 -82l-12 -25z M323 646h330l-165 1154z" />
<glyph unicode="&#xc4;" horiz-adv-x="1091" d="M60 50l84 636l194 1226h302l192 -1223l85 -639h-185l-55 416h-377l-56 -416h-184zM219 2089v142h142v-142h-142zM323 646h330l-165 1154zM615 2089v142h143v-142h-143z" />
<glyph unicode="&#xc5;" horiz-adv-x="977" d="M60 50l84 636l194 1226h85q-83 114 -83 182q0 148 148 148q149 0 149 -148q0 -68 -83 -182h86l192 -1223l85 -639h-185l-55 416h-377l-56 -416h-184zM323 646h330l-165 1247zM380 2092q0 -111 110 -111q111 0 111 111q0 110 -111 110q-110 0 -110 -110z" />
<glyph unicode="&#xc6;" horiz-adv-x="1371" d="M60 50l84 636l194 1226h840v-179h-451v-662h388v-180h-388v-662h451v-179h-634v416h-244l-56 -416h-184zM323 646h221l-56 1117z" />
<glyph unicode="&#xc7;" horiz-adv-x="943" />
<glyph unicode="&#xc8;" horiz-adv-x="944" d="M130 50v1862h634v-179h-451v-662h388v-180h-388v-662h451v-179h-634zM166 2241h152l166 -153h-79z" />
<glyph unicode="&#xc9;" horiz-adv-x="944" d="M130 50v1862h634v-179h-451v-662h388v-180h-388v-662h451v-179h-634zM410 2088l166 153h152l-239 -153h-79z" />
<glyph unicode="&#xca;" horiz-adv-x="944" d="M108 50v1862h634v-179h-451v-662h388v-180h-388v-662h451v-179h-634zM158 2089l154 152h224l155 -152h-116l-151 104l-151 -104h-115z" />
<glyph unicode="&#xcb;" horiz-adv-x="944" d="M130 50v1862h634v-179h-451v-662h388v-180h-388v-662h451v-179h-634zM178 2089v142h142v-142h-142zM574 2089v142h143v-142h-143z" />
<glyph unicode="&#xcc;" horiz-adv-x="553" d="M-54 2241h152l166 -153h-79zM135 50v1862h183v-1862h-183z" />
<glyph unicode="&#xcd;" horiz-adv-x="553" d="M111 50v1862h183v-1862h-183zM165 2088l166 153h152l-239 -153h-79z" />
<glyph unicode="&#xce;" horiz-adv-x="553" d="M-112 2089l154 152h224l155 -152h-116l-151 104l-151 -104h-115zM64 50v1862h183v-1862h-183z" />
<glyph unicode="&#xcf;" horiz-adv-x="553" d="M-43 2089v142h142v-142h-142zM135 50v1862h183v-1862h-183zM353 2089v142h143v-142h-143z" />
<glyph unicode="&#xd0;" horiz-adv-x="1015" d="M58 926v111h124v875l386 -1q327 0 327 -362v-1137q0 -361 -327 -361q-8 0 -20 -1h-366v876h-124zM365 229h174q173 0 173 183v1137q0 184 -173 184h-174v-696h98v-111h-98v-697z" />
<glyph unicode="&#xd1;" horiz-adv-x="1073" d="M130 50v1862h193l358 -1518v1514l162 3v-1861h-193l-348 1485v-1485h-172zM209 2100l14 28q54 109 130 113h6q52 0 146 -58q63 -40 111 -40q55 0 85 46l14 24l47 -31l-16 -27q-50 -79 -117 -83h-5q-53 0 -145 58q-75 47 -101 51h-8q-59 0 -100 -82l-12 -25z" />
<glyph unicode="&#xd2;" d="M120 381v1200q0 362 356 362q357 0 357 -362v-1200q0 -362 -357 -363q-356 0 -356 363zM196 2241h152l166 -153h-79zM303 381q0 -183 173 -183q174 0 174 183v1200q0 182 -173 183h-2q-172 0 -172 -183v-1200z" />
<glyph unicode="&#xd3;" d="M120 381v1200q0 362 356 362q357 0 357 -362v-1200q0 -362 -357 -363q-356 0 -356 363zM303 381q0 -183 173 -183q174 0 174 183v1200q0 182 -173 183h-2q-172 0 -172 -183v-1200zM439 2088l166 153h152l-239 -153h-79z" />
<glyph unicode="&#xd4;" d="M120 381v1200q0 362 356 362q357 0 357 -362v-1200q0 -362 -357 -363q-356 0 -356 363zM210 2089l154 152h224l155 -152h-116l-151 104l-151 -104h-115zM303 381q0 -183 173 -183q174 0 174 183v1200q0 182 -173 183h-2q-172 0 -172 -183v-1200z" />
<glyph unicode="&#xd5;" d="M120 381v1200q0 362 356 362q357 0 357 -362v-1200q0 -362 -357 -363q-356 0 -356 363zM199 2100l14 28q54 109 130 113h6q52 0 146 -58q63 -40 111 -40q55 0 85 46l14 24l47 -31l-16 -27q-50 -79 -117 -83h-5q-53 0 -145 58q-75 47 -101 51h-8q-59 0 -100 -82l-12 -25z M303 381q0 -183 173 -183q174 0 174 183v1200q0 182 -173 183h-2q-172 0 -172 -183v-1200z" />
<glyph unicode="&#xd6;" d="M120 381v1200q0 362 356 362q357 0 357 -362v-1200q0 -362 -357 -363q-356 0 -356 363zM207 2089v142h142v-142h-142zM303 381q0 -183 173 -183q174 0 174 183v1200q0 182 -173 183h-2q-172 0 -172 -183v-1200zM603 2089v142h143v-142h-143z" />
<glyph unicode="&#xd7;" horiz-adv-x="906" d="M156 779l204 203l-203 203l93 93l203 -203l203 203l94 -94l-204 -202l203 -203l-93 -93l-203 202l-203 -203z" />
<glyph unicode="&#xd8;" horiz-adv-x="953" d="M120 381v1200q0 362 356 362q81 0 192 -31l34 139h38l-38 -159q131 -107 131 -311v-1200q0 -362 -357 -363q-96 0 -218 42l-52 -216h-37l58 242q-107 109 -107 295zM303 400l316 1305q-68 59 -142 59h-2q-172 0 -172 -183v-1181zM315 296q52 -98 161 -98q174 0 174 183 v1296z" />
<glyph unicode="&#xd9;" d="M120 381v1531h183v-1531q0 -183 173 -183q174 0 174 183v1531h183v-1531q0 -362 -357 -363q-356 0 -356 363zM196 2241h152l166 -153h-79z" />
<glyph unicode="&#xda;" d="M120 381v1531h183v-1531q0 -183 173 -183q174 0 174 183v1531h183v-1531q0 -362 -357 -363q-356 0 -356 363zM439 2088l166 153h152l-239 -153h-79z" />
<glyph unicode="&#xdb;" d="M120 381v1531h183v-1531q0 -183 173 -183q174 0 174 183v1531h183v-1531q0 -362 -357 -363q-356 0 -356 363zM210 2089l154 152h224l155 -152h-116l-151 104l-151 -104h-115z" />
<glyph unicode="&#xdc;" d="M120 381v1531h183v-1531q0 -183 173 -183q174 0 174 183v1531h183v-1531q0 -362 -357 -363q-356 0 -356 363zM207 2089v142h142v-142h-142zM603 2089v142h143v-142h-143z" />
<glyph unicode="&#xdd;" horiz-adv-x="1106" d="M60 1912h193l232 -919l232 919h194l-323 -1048l-11 -31v-783h-183v784l-11 31zM448 2088l166 153h152l-239 -153h-79z" />
<glyph unicode="&#xde;" horiz-adv-x="918" d="M130 -277v2189h183v-327h142q4 0 16 -1h21q326 0 326 -362v-295q0 -268 -235 -344q-59 -19 -175 -19h-95v-841h-183zM313 743h114q68 0 101 13q107 43 107 171v295q0 184 -173 184h-149v-663z" />
<glyph unicode="&#xdf;" horiz-adv-x="953" d="M130 50v1500q0 362 356 362q357 0 357 -362v-296q0 -162 -216 -273q216 -110 216 -273v-508q0 -361 -328 -361l23 1v177q122 0 122 183v508q0 128 -109 171q-32 13 -100 13h-138v-842h-183zM313 1071h138q68 0 100 12q109 43 109 171v296q0 182 -173 183h-2 q-172 0 -172 -183v-479z" />
<glyph unicode="&#xe0;" horiz-adv-x="1091" d="M60 50l83 553l193 1076h304l192 -1073l83 -556h-185l-55 368h-375l-56 -368h-184zM207 2008h152l166 -153h-79zM321 564h332l-166 1068z" />
<glyph unicode="&#xe1;" horiz-adv-x="1091" d="M60 50l83 553l193 1076h304l192 -1073l83 -556h-185l-55 368h-375l-56 -368h-184zM321 564h332l-166 1068zM450 1855l166 153h152l-239 -153h-79z" />
<glyph unicode="&#xe2;" horiz-adv-x="1091" d="M60 50l83 553l193 1076h304l192 -1073l83 -556h-185l-55 368h-375l-56 -368h-184zM221 1856l154 152h224l155 -152h-116l-151 104l-151 -104h-115zM321 564h332l-166 1068z" />
<glyph unicode="&#xe3;" horiz-adv-x="1091" d="M60 50l83 553l193 1076h304l192 -1073l83 -556h-185l-55 368h-375l-56 -368h-184zM210 1867l14 28q54 109 130 113h6q52 0 146 -58q63 -40 111 -40q55 0 85 46l14 24l47 -31l-16 -27q-50 -79 -117 -83h-5q-53 0 -145 58q-75 47 -101 51h-8q-59 0 -100 -82l-12 -25z M321 564h332l-166 1068z" />
<glyph unicode="&#xe4;" horiz-adv-x="1091" d="M60 50l83 553l193 1076h304l192 -1073l83 -556h-185l-55 368h-375l-56 -368h-184zM218 1856v142h142v-142h-142zM321 564h332l-166 1068zM614 1856v142h143v-142h-143z" />
<glyph unicode="&#xe5;" horiz-adv-x="975" d="M60 50l83 553l193 1076h86q-83 114 -83 182q0 148 148 148q149 0 149 -148q0 -68 -83 -182h87l192 -1073l83 -556h-185l-55 368h-375l-56 -368h-184zM321 564h332l-166 1104zM357 1861q0 -131 130 -131q131 0 131 131q0 130 -131 130q-130 0 -130 -130z" />
<glyph unicode="&#xe6;" horiz-adv-x="1460" d="M60 50l83 553l193 1076h842v-146h-451v-595h388v-146h-388v-596h451v-146h-634v368h-244l-56 -368h-184zM321 564h223v725l-57 381z" />
<glyph unicode="&#xe7;" horiz-adv-x="943" />
<glyph unicode="&#xe8;" horiz-adv-x="924" d="M130 50v1629h634v-146h-451v-595h388v-146h-388v-596h451v-146h-634zM166 2008h152l166 -153h-79z" />
<glyph unicode="&#xe9;" horiz-adv-x="924" d="M130 50v1629h634v-146h-451v-595h388v-146h-388v-596h451v-146h-634zM410 1855l166 153h152l-239 -153h-79z" />
<glyph unicode="&#xea;" horiz-adv-x="924" d="M108 50v1629h634v-146h-451v-595h388v-146h-388v-596h451v-146h-634zM158 1856l154 152h224l155 -152h-116l-151 104l-151 -104h-115z" />
<glyph unicode="&#xeb;" horiz-adv-x="924" d="M130 50v1629h634v-146h-451v-595h388v-146h-388v-596h451v-146h-634zM178 1856v142h142v-142h-142zM574 1856v142h143v-142h-143z" />
<glyph unicode="&#xec;" horiz-adv-x="514" d="M-54 2008h152l166 -153h-79zM135 50v1629h183v-1629h-183z" />
<glyph unicode="&#xed;" horiz-adv-x="514" d="M111 50v1629h183v-1629h-183zM165 1855l166 153h152l-239 -153h-79z" />
<glyph unicode="&#xee;" horiz-adv-x="514" d="M-112 1856l154 152h224l155 -152h-116l-151 104l-151 -104h-115zM64 50v1629h183v-1629h-183z" />
<glyph unicode="&#xef;" horiz-adv-x="514" d="M-43 1856v142h142v-142h-142zM135 50v1629h183v-1629h-183zM353 1856v142h143v-142h-143z" />
<glyph unicode="&#xf0;" horiz-adv-x="953" d="M120 413v365q0 342 301 342q88 0 229 -113q0 367 -134 578l-221 -186l-74 88l215 180q-124 77 -198 106l40 130q148 -44 279 -135l158 133l73 -88l-147 -123q192 -256 192 -638v-639q0 -363 -356 -363q-357 0 -357 363zM303 413q0 -183 174 -183q173 0 173 183v365 q0 177 -146 183q-16 1 -31 1q-63 0 -96 -14q-74 -32 -74 -170v-365z" />
<glyph unicode="&#xf1;" horiz-adv-x="1073" d="M130 50v1629h195l356 -1334v1331l162 2v-1628h-195l-346 1305v-1305h-172zM209 1867l14 28q54 109 130 113h6q52 0 146 -58q63 -40 111 -40q55 0 85 46l14 24l47 -31l-16 -27q-50 -79 -117 -83h-5q-53 0 -145 58q-75 47 -101 51h-8q-59 0 -100 -82l-12 -25z" />
<glyph unicode="&#xf2;" d="M120 336v1057q0 314 356 314q357 0 357 -314v-1057q0 -313 -357 -313q-356 0 -356 313zM196 2008h152l166 -153h-79zM303 336q0 -167 173 -167q174 0 174 167v1057q0 167 -173 168q-174 0 -174 -168v-1057z" />
<glyph unicode="&#xf3;" d="M120 336v1057q0 314 356 314q357 0 357 -314v-1057q0 -313 -357 -313q-356 0 -356 313zM303 336q0 -167 173 -167q174 0 174 167v1057q0 167 -173 168q-174 0 -174 -168v-1057zM439 1855l166 153h152l-239 -153h-79z" />
<glyph unicode="&#xf4;" d="M120 336v1057q0 314 356 314q357 0 357 -314v-1057q0 -313 -357 -313q-356 0 -356 313zM210 1856l154 152h224l155 -152h-116l-151 104l-151 -104h-115zM303 336q0 -167 173 -167q174 0 174 167v1057q0 167 -173 168q-174 0 -174 -168v-1057z" />
<glyph unicode="&#xf5;" d="M120 336v1057q0 314 356 314q357 0 357 -314v-1057q0 -313 -357 -313q-356 0 -356 313zM199 1867l14 28q54 109 130 113h6q52 0 146 -58q63 -40 111 -40q55 0 85 46l14 24l47 -31l-16 -27q-50 -79 -117 -83h-5q-53 0 -145 58q-75 47 -101 51h-8q-59 0 -100 -82l-12 -25z M303 336q0 -167 173 -167q174 0 174 167v1057q0 167 -173 168q-174 0 -174 -168v-1057z" />
<glyph unicode="&#xf6;" d="M120 336v1057q0 314 356 314q357 0 357 -314v-1057q0 -313 -357 -313q-356 0 -356 313zM207 1856v142h142v-142h-142zM303 336q0 -167 173 -167q174 0 174 167v1057q0 167 -173 168q-174 0 -174 -168v-1057zM603 1856v142h143v-142h-143z" />
<glyph unicode="&#xf7;" horiz-adv-x="1045" d="M120 916v134h705v-134h-705zM360 369v225h224v-225h-224zM360 1374v224h224v-224h-224z" />
<glyph unicode="&#xf8;" horiz-adv-x="936" d="M119 336v1057q0 314 356 314q118 0 248 -53l74 246l38 -3l-83 -270q80 -96 80 -234v-1057q0 -313 -357 -313q-89 0 -204 31l-100 -329l-37 3l106 344q-121 97 -121 264zM302 277l347 1136q-19 147 -173 148q-174 0 -174 -168v-1116zM326 233q68 -64 149 -64 q174 0 174 167v954z" />
<glyph unicode="&#xf9;" d="M120 336v1343h183v-1343q0 -167 173 -167q174 0 174 167v1343h183v-1343q0 -313 -357 -313q-356 0 -356 313zM196 2008h152l166 -153h-79z" />
<glyph unicode="&#xfa;" d="M120 336v1343h183v-1343q0 -167 173 -167q174 0 174 167v1343h183v-1343q0 -313 -357 -313q-356 0 -356 313zM439 1855l166 153h152l-239 -153h-79z" />
<glyph unicode="&#xfb;" d="M120 336v1343h183v-1343q0 -167 173 -167q174 0 174 167v1343h183v-1343q0 -313 -357 -313q-356 0 -356 313zM210 1856l154 152h224l155 -152h-116l-151 104l-151 -104h-115z" />
<glyph unicode="&#xfc;" d="M120 336v1343h183v-1343q0 -167 173 -167q174 0 174 167v1343h183v-1343q0 -313 -357 -313q-356 0 -356 313zM207 1856v142h142v-142h-142zM603 1856v142h143v-142h-143z" />
<glyph unicode="&#xfd;" horiz-adv-x="1106" d="M60 1679h192l231 -804l230 804h192l-319 -914l-11 -29v-686h-183v687l-13 29zM445 1855l166 153h152l-239 -153h-79z" />
<glyph unicode="&#xfe;" horiz-adv-x="910" d="M130 -277v2189h183v-327h142q4 0 16 -1h21q326 0 326 -362v-295q0 -268 -235 -344q-59 -19 -175 -19h-95v-841h-183zM313 743h114q68 0 101 13q107 43 107 171v295q0 184 -173 184h-149v-663z" />
<glyph unicode="&#xff;" horiz-adv-x="1106" d="M60 1679h192l231 -804l230 804h192l-319 -914l-11 -29v-686h-183v687l-13 29zM214 1856v142h142v-142h-142zM610 1856v142h143v-142h-143z" />
<glyph unicode="&#x2c6;" horiz-adv-x="864" d="M166 1856l154 152h224l155 -152h-116l-151 104l-151 -104h-115z" />
<glyph unicode="&#x2dc;" horiz-adv-x="813" d="M130 1867l14 28q54 109 130 113h6q52 0 146 -58q63 -40 111 -40q55 0 85 46l14 24l47 -31l-16 -27q-50 -79 -117 -83h-5q-53 0 -145 58q-75 47 -101 51h-8q-59 0 -100 -82l-12 -25z" />
<glyph unicode="&#x2000;" horiz-adv-x="1121" />
<glyph unicode="&#x2001;" horiz-adv-x="2242" />
<glyph unicode="&#x2002;" horiz-adv-x="1121" />
<glyph unicode="&#x2003;" horiz-adv-x="2242" />
<glyph unicode="&#x2004;" horiz-adv-x="747" />
<glyph unicode="&#x2005;" horiz-adv-x="560" />
<glyph unicode="&#x2006;" horiz-adv-x="373" />
<glyph unicode="&#x2007;" horiz-adv-x="373" />
<glyph unicode="&#x2008;" horiz-adv-x="280" />
<glyph unicode="&#x2009;" horiz-adv-x="448" />
<glyph unicode="&#x200a;" horiz-adv-x="124" />
<glyph unicode="&#x2010;" horiz-adv-x="686" d="M50 891v133h586v-133h-586z" />
<glyph unicode="&#x2011;" horiz-adv-x="686" d="M50 891v133h586v-133h-586z" />
<glyph unicode="&#x2012;" horiz-adv-x="686" d="M50 891v133h586v-133h-586z" />
<glyph unicode="&#x2013;" horiz-adv-x="1072" d="M50 891v133h960v-133h-960z" />
<glyph unicode="&#x2014;" horiz-adv-x="1948" d="M50 891v133h1863v-133h-1863z" />
<glyph unicode="&#x2018;" horiz-adv-x="457" d="M130 1361v231l94 321h87l-58 -327h127v-225h-250z" />
<glyph unicode="&#x2019;" horiz-adv-x="510" d="M130 1688v225h250v-231l-94 -321h-87l58 327h-127z" />
<glyph unicode="&#x201a;" horiz-adv-x="457" d="M120 50v225h251v-230l-95 -322h-86l58 327h-128z" />
<glyph unicode="&#x201c;" horiz-adv-x="1047" d="M130 1361v231l94 321h87l-58 -327h127v-225h-250zM620 1361v231l94 321h87l-58 -327h127v-225h-250z" />
<glyph unicode="&#x201d;" horiz-adv-x="1100" d="M130 1688v225h250v-231l-94 -321h-87l58 327h-127zM620 1688v225h250v-231l-94 -321h-87l58 327h-127z" />
<glyph unicode="&#x201e;" horiz-adv-x="1100" d="M130 51v225h250v-231l-94 -321h-87l58 327h-127zM620 51v225h250v-231l-94 -321h-87l58 327h-127z" />
<glyph unicode="&#x2022;" horiz-adv-x="887" d="M130 983q0 130 91 222q93 92 222 92q130 0 223 -92q91 -92 91 -222q0 -129 -91 -222q-93 -91 -223 -91q-129 0 -222 91q-91 93 -91 222z" />
<glyph unicode="&#x2026;" horiz-adv-x="2048" d="M120 50v225h225v-225h-225zM803 50v225h225v-225h-225zM1486 50v225h225v-225h-225z" />
<glyph unicode="&#x202f;" horiz-adv-x="448" />
<glyph unicode="&#x2039;" horiz-adv-x="692" d="M130 1002l432 394v-194l-252 -214l252 -207v-181z" />
<glyph unicode="&#x203a;" horiz-adv-x="692" d="M130 600v181l252 207l-252 214v194l432 -394z" />
<glyph unicode="&#x205f;" horiz-adv-x="560" />
<glyph unicode="&#x20ac;" horiz-adv-x="994" d="M30 793v58h141v260h-141v58h141v412q0 363 356 363q357 0 357 -363v-213h-183v213q0 183 -173 183h-2q-172 0 -172 -183v-412h382v-58h-382v-260h382v-58h-382v-412q0 -183 173 -183q174 0 174 183v214h183v-214q0 -362 -357 -362q-356 0 -356 362v412h-141z" />
<glyph unicode="&#x2122;" horiz-adv-x="1008" d="M36 1079v72h320v-72h-119v-673h-82v673h-119zM230 406v745h87l167 -601l166 601h87v-745h-77v604l-149 -604h-51l-152 600v-600h-78z" />
<glyph unicode="&#x25fc;" horiz-adv-x="1680" d="M0 0v1680h1680v-1680h-1680z" />
</font>
</defs>
</svg>
